 <svg  version="1.0" xmlns="http://www.w3.org/2000/svg"  width="300.000000pt" height="300.000000pt" viewBox="0 0 300.000000 300.000000"  preserveAspectRatio="xMidYMid meet">  <g transform="translate(0.000000,300.000000) scale(0.100000,-0.100000)" fill="#000000" stroke="none">
     <path d="M2188 2737 c-123 -42 -229 -135 -280 -246 l-21 -46 -93 15 c-94 15 -94 15 -94 44 0 43 -36 112 -76 145 -82 67 -196 67 -278 0 -40 -33 -76 -102 -76 -145 l0 -29 -103 -17 c-291 -48 -541 -166 -716 -338 -175 -171 -261 -373 -261 -614 l0 -94 -29 -10 c-74 -26 -151 -152 -151 -245 l0 -42 20 25 20 25 -1 -65 0 -65 -21 25 -21 25 5 -61 c10 -111 86 -215 177 -242 21 -7 77 -12 123 -12 l85 0 1 -47 c5 -210 172 -412 389 -468 75 -20 612 -22 631 -3 19 19 14 56 -8 68 -13 7 -118 10 -297 9 -254 -1 -283 1 -335 19 -146 51 -257 178 -288 329 -7 34 -10 186 -8 435 l3 383 27 75 c14 41 39 98 54 125 42 76 167 194 249 237 142 73 128 72 645 75 256 2 470 0 475 -4 6 -5 27 -27 48 -51 36 -41 37 -43 37 -125 0 -122 16 -130 151 -72 62 27 94 35 128 33 43 -3 47 -6 87 -65 22 -35 54 -100 70 -145 l29 -83 3 -383 c3 -406 0 -447 -43 -540 -28 -61 -113 -154 -170 -187 -92 -53 -119 -57 -413 -56 -175 1 -280 -2 -292 -9 -22 -12 -27 -49 -8 -68 19 -19 546 -17 621 3 211 55 381 255 390 459 l2 56 84 0 c46 0 101 5 123 12 59 17 120 77 154 150 26 56 29 73 28 163 0 78 -5 112 -22 155 -28 70 -72 124 -120 145 l-37 17 -2 102 c-3 106 -22 220 -48 283 -8 20 -14 37 -13 37 2 1 20 11 41 21 83 43 174 153 208 252 20 60 27 163 8 131 -19 -33 -29 -18 -29 44 l0 61 21 -19 22 -19 -5 61 c-15 160 -154 321 -325 374 -55 17 -93 20 -237 20 -152 0 -179 -3 -238 -23z m386 -67 c130 -19 248 -107 304 -228 24 -51 27 -69 27 -167 0 -98 -3 -116 -27 -167 -37 -80 -107 -152 -187 -191 l-65 -32 -201 -5 c-192 -5 -202 -6 -259 -32 -32 -16 -60 -28 -62 -28 -2 0 -4 30 -4 66 0 66 -1 68 -46 116 -25 27 -57 74 -72 106 -24 51 -27 69 -27 167 0 98 3 116 27 167 54 116 176 210 295 227 82 12 216 12 297 1z m-1024 -75 c74 -38 85 -154 19 -209 -59 -50 -145 -39 -191 25 -39 52 -17 153 40 183 35 20 95 20 132 1z m-225 -168 l7 -27 -30 17 c-29 17 -30 19 -15 36 19 20 29 14 38 -26z m348 -9 c-32 -20 -38 -13 -23 27 10 27 11 27 30 10 20 -18 20 -19 -7 -37z m252 -10 c-10 -46 -22 -56 -40 -32 -18 24 -19 34 -1 34 7 0 19 7 26 15 19 23 22 18 15 -17z m-604 -62 c21 -24 57 -51 79 -60 l40 -16 0 -87 0 -88 -213 -1 c-239 -1 -303 -11 -423 -69 -211 -102 -359 -296 -397 -521 l-13 -78 -60 0 -59 1 3 94 c6 160 42 280 121 401 156 239 448 399 841 461 14 2 29 5 34 6 5 0 26 -19 47 -43z m459 29 c47 -8 85 -15 85 -15 1 0 -1 -31 -3 -68 -3 -43 2 -92 12 -131 9 -34 16 -63 16 -64 0 -1 -81 -2 -180 -2 l-180 0 0 87 0 87 43 19 c24 11 59 38 78 61 19 22 36 41 39 41 3 0 43 -7 90 -15z m-277 -92 l-17 -25 -18 24 c-24 32 -23 35 17 30 34 -4 34 -4 18 -29z m17 -225 c0 -5 -16 -8 -35 -8 -40 0 -41 2 -18 36 l17 26 18 -24 c9 -12 18 -26 18 -30z m439 4 l22 -43 -22 12 c-13 6 -34 15 -47 18 l-23 6 21 28 c12 16 23 27 25 25 1 -2 12 -22 24 -46z m738 -222 c-13 -35 -18 -36 -42 -10 -17 19 -17 20 6 29 43 17 48 14 36 -19z m-252 -20 c-3 -6 -12 -21 -19 -35 l-13 -24 -33 34 -34 35 53 0 c32 0 50 -4 46 -10z m-352 -18 c19 -21 13 -32 -15 -32 -13 0 -18 7 -18 25 0 30 11 32 33 7z m564 -47 c23 -63 42 -183 43 -261 l0 -70 -62 2 -63 1 -6 49 c-4 27 -12 69 -19 94 -15 57 -74 185 -89 194 -26 17 -6 25 67 29 118 5 114 6 129 -38z m-2387 -365 c0 -8 -62 -20 -68 -15 -2 2 4 15 14 29 16 25 18 26 35 10 11 -10 19 -20 19 -24z m165 -48 c-3 -3 -15 4 -27 16 l-22 22 25 26 24 26 3 -42 c2 -23 1 -45 -3 -48z m2130 58 c17 -19 17 -21 0 -40 -27 -29 -35 -25 -35 20 0 45 8 49 35 20z m195 -1 c7 -11 10 -22 8 -24 -8 -8 -58 9 -58 19 0 32 35 35 50 5z m-2367 -300 l-2 -242 -87 2 c-102 3 -134 16 -168 69 -38 58 -49 107 -44 191 5 81 27 139 70 178 35 33 66 42 153 42 l80 1 -2 -241z m2364 230 c72 -27 114 -101 121 -210 5 -84 -6 -133 -44 -191 -34 -53 -66 -66 -167 -69 l-87 -2 -3 242 -2 241 77 0 c42 0 89 -5 105 -11z m-2317 -519 c0 -45 -8 -49 -35 -20 -17 19 -17 21 0 40 27 29 35 25 35 -20z m2125 20 c17 -19 17 -21 0 -40 -27 -29 -35 -25 -35 20 0 45 8 49 35 20z"/>
     <path d="M2170 2411 c-12 -24 -4 -48 21 -61 23 -13 380 -13 413 0 18 6 26 17 26 33 0 45 -11 47 -237 47 -199 0 -213 -1 -223 -19z"/>
     <path d="M2180 2210 c-24 -24 -25 -34 -4 -54 13 -14 54 -16 288 -16 198 0 275 3 284 12 17 17 15 44 -4 62 -13 14 -53 16 -280 16 -251 0 -265 -1 -284 -20z"/>
     <path d="M833 1594 c-61 -22 -136 -93 -164 -156 -24 -52 -24 -59 -24 -343 0 -216 3 -300 13 -328 23 -64 85 -132 149 -163 l58 -29 620 0 c609 0 621 0 666 21 66 31 114 78 146 142 l28 57 0 295 c0 289 0 296 -24 348 -29 65 -104 134 -168 156 -38 13 -95 16 -309 16 -253 0 -264 -1 -274 -20 -7 -14 -8 -26 0 -39 9 -19 25 -20 273 -23 258 -3 263 -3 307 -28 24 -14 58 -45 75 -68 l30 -44 3 -276 c3 -307 0 -330 -60 -391 -61 -63 -42 -61 -695 -61 -568 0 -595 1 -632 19 -49 26 -97 81 -111 128 -8 25 -10 130 -8 310 l3 271 30 44 c17 23 51 54 75 68 44 24 50 25 309 30 237 4 265 7 275 23 8 12 8 22 0 35 -10 15 -36 17 -280 19 -218 1 -277 -1 -311 -13z"/>
     <path d="M1066 1365 c-88 -31 -143 -130 -118 -214 40 -132 196 -176 296 -83 102 96 58 263 -80 301 -48 13 -50 13 -98 -4z m115 -104 c50 -50 35 -124 -31 -151 -24 -10 -36 -10 -60 0 -66 27 -81 101 -31 151 40 39 82 39 122 0z"/>
     <path d="M1821 1368 c-51 -14 -79 -37 -108 -85 -49 -84 -17 -195 70 -244 55 -31 141 -24 192 15 41 32 75 95 75 141 0 73 -65 154 -138 175 -43 11 -46 11 -91 -2z m110 -107 c51 -51 32 -129 -36 -151 -43 -14 -91 8 -109 51 -18 42 -9 74 26 104 40 34 82 33 119 -4z"/>
     <path d="M1330 916 c-21 -26 -7 -59 38 -91 40 -27 51 -30 122 -30 71 0 82 3 122 30 45 32 59 65 38 91 -17 20 -43 18 -74 -7 -46 -36 -90 -43 -140 -21 -24 11 -47 25 -50 31 -10 16 -41 14 -56 -3z"/> </g>
 </svg>